<!DOCTYPE svg PUBLIC "-//W3C//DTD SVG 20010904//EN" "http://www.w3.org/TR/2001/REC-SVG-20010904/DTD/svg10.dtd">
<svg version="1.0" xmlns="http://www.w3.org/2000/svg" width="1326px" height="817px" viewBox="0 0 13260 8170" preserveAspectRatio="xMidYMid meet">
<g id="layer101" fill="#000000" stroke="none">
 <path d="M6516 8162 c-6 -11 -726 -2570 -726 -2583 0 -5 1423 -9 3735 -9 l3735 0 0 1300 0 1300 -3369 0 c-1854 0 -3372 -4 -3375 -8z"/>
 <path d="M2199 5328 c10 -35 175 -622 367 -1305 l349 -1243 5173 0 5172 0 0 1305 0 1305 -5539 0 -5540 0 18 -62z"/>
 <path d="M365 1319 c-198 -705 -361 -1290 -363 -1300 -3 -19 130 -19 6627 -19 l6631 0 0 1300 0 1300 -6267 0 -6268 0 -360 -1281z"/>
 </g>
<g id="layer102" fill="#ffffff" stroke="none">
 <path d="M6490 8090 c0 -7 3 -10 7 -7 3 4 3 10 0 14 -4 3 -7 0 -7 -7z"/>
 <path d="M6470 8020 c0 -7 3 -10 7 -7 3 4 3 10 0 14 -4 3 -7 0 -7 -7z"/>
 <path d="M6400 7770 c0 -7 3 -10 7 -7 3 4 3 10 0 14 -4 3 -7 0 -7 -7z"/>
 <path d="M6380 7700 c0 -7 3 -10 7 -7 3 4 3 10 0 14 -4 3 -7 0 -7 -7z"/>
 <path d="M8670 7630 c-219 -27 -368 -179 -411 -420 -21 -115 -18 -601 4 -699 38 -169 129 -291 266 -359 69 -34 82 -37 182 -40 118 -5 187 10 272 56 101 54 189 180 224 319 26 100 25 665 0 767 -65 257 -280 408 -537 376z m163 -214 c89 -32 146 -96 173 -192 21 -78 31 -448 15 -597 -12 -121 -34 -184 -84 -235 -47 -50 -103 -74 -178 -80 -83 -6 -150 15 -208 64 -77 66 -93 126 -106 384 -8 159 9 428 31 494 21 63 93 137 155 159 55 19 152 21 202 3z"/>
 <path d="M7246 7604 c-14 -14 -16 -94 -16 -734 0 -640 2 -720 16 -734 23 -23 156 -23 175 1 12 13 15 130 17 645 l3 628 267 0 c324 0 312 -4 312 105 0 54 -4 78 -16 89 -13 14 -62 16 -379 16 -317 0 -366 -2 -379 -16z"/>
 <path d="M9508 7609 c-15 -8 -18 -24 -18 -83 0 -49 4 -77 13 -84 8 -7 72 -13 158 -14 l144 -3 0 -555 0 -555 -134 -3 c-79 -1 -140 -7 -148 -14 -9 -7 -13 -35 -13 -84 0 -62 3 -75 19 -84 13 -6 152 -10 385 -10 318 0 367 2 380 16 20 20 23 148 4 161 -7 4 -74 10 -148 13 l-135 5 0 555 0 555 144 3 c86 1 150 7 158 14 9 7 13 35 13 84 0 62 -3 75 -19 84 -27 14 -779 13 -803 -1z"/>
 <path d="M10708 7609 c-17 -9 -18 -55 -18 -739 0 -711 0 -730 19 -740 27 -14 425 -13 493 1 210 44 359 225 359 435 0 40 -5 92 -11 116 -28 103 -106 209 -197 265 -24 16 -46 37 -49 49 -4 14 38 111 125 290 72 149 131 279 131 290 0 35 -20 44 -101 44 -58 0 -82 -4 -98 -17 -11 -10 -81 -144 -154 -298 l-133 -280 -90 0 -89 0 -3 284 c-1 189 -6 289 -13 298 -14 16 -145 18 -171 2z m521 -824 c92 -51 138 -134 128 -235 -6 -68 -24 -107 -73 -154 -59 -57 -99 -67 -254 -64 l-135 3 -3 229 c-2 170 1 232 10 243 10 12 36 14 143 11 122 -3 134 -6 184 -33z"/>
 <path d="M11918 7609 c-17 -9 -18 -55 -18 -739 0 -711 0 -730 19 -740 13 -6 152 -10 385 -10 l365 0 15 22 c21 29 21 137 2 164 -13 18 -32 19 -298 24 l-283 5 0 205 0 205 270 5 c149 3 276 9 283 13 8 6 12 36 12 92 0 56 -4 86 -12 92 -7 4 -134 10 -283 13 l-270 5 0 220 0 220 288 5 c241 4 289 7 297 20 5 8 10 50 10 92 0 66 -3 79 -19 88 -26 14 -739 13 -763 -1z"/>
 <path d="M6310 7450 c0 -7 3 -10 7 -7 3 4 3 10 0 14 -4 3 -7 0 -7 -7z"/>
 <path d="M6220 7130 c0 -7 3 -10 7 -7 3 4 3 10 0 14 -4 3 -7 0 -7 -7z"/>
 <path d="M6200 7060 c0 -7 3 -10 7 -7 3 4 3 10 0 14 -4 3 -7 0 -7 -7z"/>
 <path d="M6130 6810 c0 -7 3 -10 7 -7 3 4 3 10 0 14 -4 3 -7 0 -7 -7z"/>
 <path d="M6040 6490 c0 -7 3 -10 7 -7 3 4 3 10 0 14 -4 3 -7 0 -7 -7z"/>
 <path d="M5950 6170 c0 -7 3 -10 7 -7 3 4 3 10 0 14 -4 3 -7 0 -7 -7z"/>
 <path d="M5860 5850 c0 -7 3 -10 7 -7 3 4 3 10 0 14 -4 3 -7 0 -7 -7z"/>
 <path d="M2220 5240 c0 -7 3 -10 7 -7 3 4 3 10 0 14 -4 3 -7 0 -7 -7z"/>
 <path d="M2310 4920 c0 -7 3 -10 7 -7 3 4 3 10 0 14 -4 3 -7 0 -7 -7z"/>
 <path d="M9830 4839 c-124 -24 -251 -123 -308 -239 -63 -129 -67 -161 -67 -515 0 -349 4 -382 63 -505 35 -73 141 -179 212 -212 241 -112 540 -18 650 206 26 52 33 81 37 150 7 110 3 116 -89 116 -91 0 -108 -9 -108 -62 0 -145 -114 -250 -275 -251 -121 0 -210 54 -255 155 -26 60 -39 196 -39 403 0 373 32 472 179 539 64 29 176 27 248 -4 64 -28 116 -85 131 -145 6 -24 11 -94 11 -154 l0 -111 -108 0 c-144 0 -152 -6 -152 -105 0 -109 -8 -105 234 -105 144 0 205 3 214 12 20 20 16 449 -4 519 -23 75 -56 128 -118 187 -115 109 -286 154 -456 121z"/>
 <path d="M3652 4818 c-9 -9 -12 -186 -12 -734 0 -616 2 -723 14 -734 11 -8 84 -11 278 -8 l263 3 66 31 c120 57 196 147 226 269 30 121 -6 262 -92 362 l-36 42 49 54 c94 103 136 240 113 364 -31 169 -141 294 -302 344 -53 16 -93 19 -308 19 -179 0 -250 -3 -259 -12z m511 -204 c54 -18 122 -81 143 -129 36 -86 3 -220 -67 -279 -58 -50 -86 -56 -244 -56 l-145 0 0 240 0 240 133 0 c95 0 147 -5 180 -16z m5 -679 c80 -34 122 -101 122 -195 0 -69 -8 -90 -53 -138 -45 -47 -106 -62 -258 -62 l-128 0 -3 189 c-2 103 -2 195 0 205 3 14 21 16 143 16 103 0 149 -4 177 -15z"/>
 <path d="M4850 4811 c-16 -31 -14 -1432 3 -1455 12 -16 34 -17 272 -14 l260 3 68 32 c229 109 328 373 223 595 -33 70 -100 146 -165 187 -27 18 -52 39 -56 49 -4 10 45 122 131 300 109 225 136 287 127 300 -16 26 -183 30 -205 5 -9 -10 -75 -142 -148 -295 l-132 -276 -51 -4 c-29 -1 -69 -2 -89 0 l-38 3 0 275 c0 171 -4 283 -10 295 -9 16 -22 19 -95 19 -73 0 -86 -3 -95 -19z m501 -795 c164 -58 215 -270 96 -394 -64 -67 -96 -77 -252 -77 l-140 0 -3 243 -2 242 132 0 c82 -1 147 -6 169 -14z"/>
 <path d="M6060 4811 c-14 -27 -14 -1425 0 -1452 10 -18 25 -19 388 -19 281 0 381 3 390 12 17 17 16 162 -1 177 -9 7 -107 12 -293 13 l-279 3 0 210 0 210 270 3 c312 3 295 -3 295 102 0 105 17 99 -295 102 l-270 3 -3 228 -2 227 284 0 c231 0 286 3 295 14 8 9 11 45 9 98 l-3 83 -387 3 c-375 2 -388 2 -398 -17z"/>
 <path d="M7497 4823 c-4 -3 -7 -286 -7 -629 0 -342 -3 -629 -6 -638 -5 -14 -29 -16 -163 -16 -109 0 -161 -4 -169 -12 -7 -7 -12 -42 -12 -88 0 -46 5 -81 12 -88 9 -9 121 -12 440 -12 399 0 429 1 436 18 10 24 9 158 -1 169 -5 4 -81 10 -170 13 l-162 5 -3 629 c-1 444 -5 633 -13 643 -12 14 -169 19 -182 6z"/>
 <path d="M8257 4823 c-4 -3 -7 -14 -7 -24 0 -21 384 -1402 400 -1436 9 -22 16 -23 109 -23 85 0 102 3 109 18 18 34 403 1426 400 1446 -3 19 -11 21 -89 24 -61 2 -89 -1 -96 -10 -6 -7 -32 -88 -58 -180 -27 -92 -52 -173 -56 -180 -6 -10 -57 -14 -197 -16 -170 -3 -190 -1 -209 15 -15 12 -36 69 -68 183 -26 91 -52 171 -57 178 -11 13 -169 18 -181 5z m653 -592 c0 -15 -141 -605 -145 -609 -3 -3 -7 -3 -10 0 -4 4 -115 470 -140 585 l-6 32 133 3 c136 3 168 1 168 -11z"/>
 <path d="M10672 4818 c-19 -19 -18 -1451 2 -1467 9 -8 52 -11 126 -9 l113 3 216 542 c119 299 219 543 224 543 4 0 7 -240 7 -533 0 -401 3 -536 12 -545 7 -7 43 -12 90 -12 66 0 79 3 88 19 7 13 10 258 10 726 0 468 -3 713 -10 726 -10 17 -22 19 -125 19 -80 0 -116 -4 -122 -12 -4 -7 -103 -251 -219 -542 -116 -292 -216 -532 -222 -534 -9 -3 -12 137 -14 540 l-3 543 -80 3 c-54 2 -84 -1 -93 -10z"/>
 <path d="M11930 4811 c-14 -27 -14 -1425 0 -1452 10 -18 25 -19 388 -19 281 0 381 3 390 12 7 7 12 42 12 88 0 46 -5 81 -12 88 -9 9 -88 12 -295 12 l-283 0 2 213 3 212 270 3 c240 2 271 4 283 19 14 20 16 141 2 163 -8 13 -54 16 -282 20 l-273 5 -3 228 -2 227 284 0 c231 0 286 3 295 14 8 9 11 45 9 98 l-3 83 -387 3 c-375 2 -388 2 -398 -17z"/>
 <path d="M2400 4600 c0 -7 3 -10 7 -7 3 4 3 10 0 14 -4 3 -7 0 -7 -7z"/>
 <path d="M2490 4280 c0 -7 3 -10 7 -7 3 4 3 10 0 14 -4 3 -7 0 -7 -7z"/>
 <path d="M2580 3960 c0 -7 3 -10 7 -7 3 4 3 10 0 14 -4 3 -7 0 -7 -7z"/>
 <path d="M2670 3640 c0 -7 3 -10 7 -7 3 4 3 10 0 14 -4 3 -7 0 -7 -7z"/>
 <path d="M2760 3320 c0 -7 3 -10 7 -7 3 4 3 10 0 14 -4 3 -7 0 -7 -7z"/>
 <path d="M2850 3000 c0 -7 3 -10 7 -7 3 4 3 10 0 14 -4 3 -7 0 -7 -7z"/>
 <path d="M720 2590 c0 -7 3 -10 7 -7 3 4 3 10 0 14 -4 3 -7 0 -7 -7z"/>
 <path d="M630 2270 c0 -7 3 -10 7 -7 3 4 3 10 0 14 -4 3 -7 0 -7 -7z"/>
 <path d="M1573 2065 c-132 -36 -240 -124 -296 -242 l-32 -68 -3 -579 c-2 -426 0 -582 9 -592 15 -18 148 -19 172 -2 15 12 17 63 19 573 3 615 0 584 65 649 94 96 297 100 404 8 81 -70 79 -47 79 -657 0 -473 2 -543 16 -563 13 -19 24 -22 89 -22 54 0 78 4 89 16 14 14 16 77 16 549 0 358 -4 552 -11 587 -36 166 -178 308 -349 347 -63 15 -205 12 -267 -4z"/>
 <path d="M8610 2061 c-118 -38 -215 -110 -267 -199 -60 -101 -85 -270 -44 -292 29 -15 156 -13 170 4 6 7 14 40 17 72 8 74 31 120 83 167 127 114 366 75 441 -74 28 -53 27 -158 0 -215 -35 -72 -98 -105 -290 -150 -196 -46 -309 -123 -366 -247 -25 -55 -28 -73 -29 -167 0 -93 3 -111 27 -162 148 -317 648 -325 805 -13 23 45 43 129 43 180 0 48 -28 65 -107 65 -80 0 -103 -19 -103 -85 0 -109 -94 -185 -229 -185 -76 0 -125 15 -167 52 -48 43 -64 77 -64 142 0 132 50 175 273 232 169 44 247 82 323 158 73 73 103 143 111 256 10 134 -25 234 -113 330 -57 61 -136 108 -223 134 -74 22 -219 20 -291 -3z"/>
 <path d="M2457 2052 c-16 -17 -17 -82 -17 -735 0 -637 2 -717 16 -731 12 -13 38 -16 117 -16 56 0 107 4 114 8 6 4 106 246 223 537 116 292 216 534 221 540 5 5 9 -196 9 -516 0 -459 2 -527 16 -547 13 -19 24 -22 84 -22 49 0 73 4 84 16 14 14 16 94 16 734 0 640 -2 720 -16 734 -12 13 -38 16 -119 16 -97 0 -106 -2 -119 -22 -8 -13 -108 -257 -221 -543 -113 -286 -210 -524 -216 -530 -5 -5 -9 193 -9 526 0 619 9 569 -102 569 -50 0 -69 -4 -81 -18z"/>
 <path d="M3657 2052 c-21 -23 -24 -144 -4 -160 8 -7 72 -13 158 -14 l144 -3 3 -557 2 -558 -133 0 c-161 0 -167 -3 -167 -98 0 -98 -26 -92 404 -92 276 0 375 3 384 12 7 7 12 41 12 85 0 61 -3 74 -19 83 -11 5 -76 10 -145 10 l-126 0 -2 546 c-2 300 1 552 5 560 6 11 38 14 153 14 l144 0 10 26 c18 45 12 122 -10 144 -19 19 -33 20 -408 20 -364 0 -390 -1 -405 -18z"/>
 <path d="M5131 2061 c-8 -5 -102 -323 -217 -732 -112 -398 -204 -725 -204 -726 0 -1 7 -9 16 -17 20 -21 166 -23 186 -3 7 8 80 273 162 590 102 395 154 577 163 577 7 0 13 -1 13 -2 1 -25 302 -1154 311 -1164 18 -22 178 -16 192 7 13 21 -386 1447 -411 1467 -18 14 -189 17 -211 3z"/>
 <path d="M6070 2050 c-20 -20 -20 -33 -20 -734 0 -636 2 -716 16 -730 13 -14 63 -16 388 -16 276 0 375 3 384 12 17 17 16 162 -1 177 -9 7 -107 12 -293 13 l-279 3 -3 213 -2 212 269 0 c315 0 301 -5 301 96 0 111 19 104 -280 104 -142 0 -265 3 -274 6 -14 5 -16 35 -16 230 l0 224 276 0 c171 0 283 4 295 10 16 9 19 22 19 95 0 73 -3 86 -19 95 -13 6 -151 10 -380 10 -348 0 -362 -1 -381 -20z"/>
 <path d="M7206 2054 c-14 -14 -16 -94 -16 -734 0 -640 2 -720 16 -734 22 -23 432 -23 517 -1 180 47 307 185 338 368 27 163 -60 352 -207 444 -24 16 -47 36 -50 46 -4 12 36 104 107 250 61 128 123 256 137 286 l25 54 -23 19 c-31 25 -159 26 -188 1 -11 -10 -78 -139 -148 -288 -70 -148 -131 -276 -137 -282 -6 -9 -38 -13 -92 -13 -66 0 -84 3 -89 16 -3 9 -6 139 -6 289 0 316 7 295 -104 295 -45 0 -69 -5 -80 -16z m534 -826 c172 -104 155 -357 -29 -436 -49 -20 -284 -30 -306 -12 -13 10 -15 49 -15 240 0 124 3 230 7 233 3 4 70 7 148 7 l141 0 54 -32z"/>
 <path d="M9526 2054 c-21 -20 -23 -146 -3 -162 8 -7 72 -13 158 -14 l144 -3 3 -557 2 -558 -133 0 c-161 0 -167 -3 -167 -98 0 -98 -26 -92 404 -92 276 0 375 3 384 12 7 7 12 41 12 85 0 61 -3 74 -19 83 -11 5 -76 10 -144 10 -105 0 -126 3 -131 16 -3 9 -6 253 -6 544 0 291 3 535 6 544 5 14 28 16 148 16 77 0 148 4 156 10 10 6 14 29 15 80 0 60 -3 74 -19 86 -16 11 -88 14 -407 14 -339 0 -390 -2 -403 -16z"/>
 <path d="M11028 2059 c-17 -9 -18 -50 -18 -637 0 -475 -3 -631 -12 -640 -8 -8 -59 -12 -163 -12 -104 0 -155 -4 -163 -12 -7 -7 -12 -42 -12 -88 0 -46 5 -81 12 -88 9 -9 119 -12 434 -12 371 0 424 2 438 16 11 11 16 35 16 80 0 106 4 104 -170 104 -81 0 -155 3 -164 6 -14 6 -16 71 -16 634 0 558 -2 630 -16 644 -18 19 -138 22 -166 5z"/>
 <path d="M11937 2052 c-16 -17 -17 -82 -17 -735 0 -637 2 -717 16 -731 13 -14 62 -16 384 -16 322 0 371 2 384 16 21 20 23 156 3 173 -9 7 -107 12 -293 13 l-279 3 -3 213 -2 212 269 0 c268 0 270 0 285 22 20 27 22 137 4 161 -12 15 -43 17 -283 19 l-270 3 -3 228 -2 227 275 0 c171 0 284 4 296 10 16 9 19 22 19 95 0 73 -3 86 -19 95 -13 6 -152 10 -384 10 -340 0 -365 -1 -380 -18z"/>
 <path d="M540 1950 c0 -7 3 -10 7 -7 3 4 3 10 0 14 -4 3 -7 0 -7 -7z"/>
 <path d="M450 1630 c0 -7 3 -10 7 -7 3 4 3 10 0 14 -4 3 -7 0 -7 -7z"/>
 <path d="M360 1310 c0 -7 3 -10 7 -7 3 4 3 10 0 14 -4 3 -7 0 -7 -7z"/>
 <path d="M270 990 c0 -7 3 -10 7 -7 3 4 3 10 0 14 -4 3 -7 0 -7 -7z"/>
 <path d="M180 670 c0 -7 3 -10 7 -7 3 4 3 10 0 14 -4 3 -7 0 -7 -7z"/>
 <path d="M90 350 c0 -7 3 -10 7 -7 3 4 3 10 0 14 -4 3 -7 0 -7 -7z"/>
 <path d="M1 24 c0 -11 3 -14 6 -6 3 7 2 16 -1 19 -3 4 -6 -2 -5 -13z"/>
 </g>

</svg>