<!DOCTYPE svg PUBLIC "-//W3C//DTD SVG 20010904//EN" "http://www.w3.org/TR/2001/REC-SVG-20010904/DTD/svg10.dtd">
<svg version="1.0" xmlns="http://www.w3.org/2000/svg" width="1594px" height="797px" viewBox="0 0 15940 7970" preserveAspectRatio="xMidYMid meet">
<g id="layer101" fill="#0e2748" stroke="none">
 <path d="M0 3985 l0 -3985 2215 0 2215 0 0 445 0 445 -1770 0 -1770 0 0 3095 0 3095 1770 0 1770 0 0 445 0 445 -2215 0 -2215 0 0 -3985z"/>
 <path d="M1770 3985 l0 -2215 1330 0 1330 0 0 2215 0 2215 -445 0 -445 0 0 -1770 0 -1770 -440 0 -440 0 0 1770 0 1770 -445 0 -445 0 0 -2215z"/>
 <path d="M5380 5090 l0 -821 146 3 146 3 326 714 327 713 3 -716 2 -716 90 0 90 0 0 820 0 820 -137 0 -138 0 -335 -725 -335 -724 -3 725 -2 724 -90 0 -90 0 0 -820z"/>
 <path d="M6701 5898 c0 -7 123 -375 272 -818 l272 -805 110 0 110 0 272 805 c149 443 272 811 272 818 1 9 -23 12 -89 12 l-89 0 -66 -205 -66 -205 -344 0 -344 0 -66 205 -66 205 -89 0 c-66 0 -90 -3 -89 -12z m939 -565 c1 -14 -285 -893 -287 -885 -2 4 -66 202 -143 440 -77 237 -140 437 -140 442 0 12 570 14 570 3z"/>
 <path d="M8200 5090 l0 -821 146 3 145 3 327 715 327 715 3 -718 2 -717 90 0 90 0 0 820 0 820 -137 0 -138 0 -335 -723 -335 -724 -3 724 -2 723 -90 0 -90 0 0 -820z"/>
 <path d="M9990 5170 l0 -740 -240 0 -240 0 0 -80 0 -80 570 0 570 0 0 80 0 80 -240 0 -240 0 0 740 0 740 -90 0 -90 0 0 -740z"/>
 <path d="M10820 5090 l0 -820 480 0 480 0 0 80 0 80 -385 0 -385 0 0 280 0 280 320 0 320 0 0 80 0 80 -320 0 -320 0 0 295 0 295 385 0 385 0 0 85 0 85 -480 0 -480 0 0 -820z"/>
 <path d="M12000 5827 l0 -86 288 -3 c315 -4 342 -9 414 -68 57 -47 81 -107 80 -200 0 -123 -35 -181 -139 -234 -18 -9 -115 -39 -215 -67 -219 -60 -292 -92 -352 -154 -145 -148 -135 -516 17 -638 57 -47 95 -65 184 -88 67 -17 112 -19 370 -19 l293 0 0 80 0 80 -255 0 c-324 0 -376 10 -457 88 -51 48 -72 114 -66 206 7 104 44 163 130 207 20 10 125 44 234 74 108 31 215 65 238 77 135 67 192 166 203 350 16 261 -90 409 -327 459 -25 5 -179 12 -342 16 l-298 6 0 -86z"/>
 <path d="M5785 3840 c-190 -29 -319 -119 -390 -273 -64 -140 -85 -293 -85 -612 0 -323 29 -510 98 -640 38 -70 126 -156 194 -188 109 -51 158 -58 506 -64 l322 -6 0 151 0 150 -272 4 c-270 3 -274 3 -328 29 -142 67 -173 168 -172 574 0 351 29 472 129 535 68 43 121 50 393 50 l250 0 0 150 0 150 -297 -1 c-164 -1 -320 -5 -348 -9z"/>
 <path d="M6620 2955 l0 -895 535 0 535 0 0 150 0 150 -365 0 -365 0 0 225 0 225 290 0 290 0 0 145 0 145 -290 0 -290 0 0 225 0 225 365 0 365 0 0 150 0 150 -535 0 -535 0 0 -895z"/>
 <path d="M7880 2955 l0 -895 273 0 272 0 255 724 255 724 3 -724 2 -724 170 0 170 0 0 895 0 895 -274 0 -273 0 -85 -242 c-47 -134 -161 -460 -254 -726 l-169 -483 -3 725 -2 726 -170 0 -170 0 0 -895z"/>
 <path d="M9910 3105 l0 -745 -215 0 -215 0 0 -150 0 -150 605 0 605 0 0 150 0 150 -220 0 -220 0 0 745 0 745 -170 0 -170 0 0 -745z"/>
 <path d="M10880 2954 l0 -896 383 5 c305 4 395 8 445 21 268 68 406 280 389 596 -11 189 -64 318 -171 418 l-62 57 113 340 c62 187 113 343 113 347 0 5 -83 8 -185 8 l-184 0 -32 -102 c-17 -57 -60 -193 -93 -303 l-62 -200 -157 -3 -157 -3 0 306 0 305 -170 0 -170 0 0 -896z m722 -24 c53 -15 92 -52 119 -112 20 -45 23 -70 24 -158 0 -133 -19 -195 -77 -244 -54 -46 -105 -56 -293 -56 l-155 0 0 290 0 290 173 0 c94 0 189 -5 209 -10z"/>
 <path d="M12240 3843 c0 -6 336 -1333 412 -1626 l41 -157 226 2 226 3 168 645 c92 355 196 756 231 893 l64 247 -172 0 -172 0 -33 -142 c-18 -79 -37 -160 -42 -180 l-10 -38 -262 0 -263 0 -33 148 c-19 81 -38 162 -43 180 l-9 32 -164 0 c-91 0 -165 -3 -165 -7z m866 -670 c-3 -10 -44 -184 -91 -388 -47 -203 -89 -378 -93 -388 -4 -11 -41 128 -100 380 -51 219 -92 401 -92 406 0 4 86 7 191 7 177 0 190 -1 185 -17z"/>
 <path d="M13780 2955 l0 -895 170 0 170 0 0 745 0 745 300 0 300 0 0 150 0 150 -470 0 -470 0 0 -895z"/>
 <path d="M14880 2955 l0 -895 530 0 530 0 0 150 0 150 -360 0 -360 0 0 225 0 225 290 0 290 0 0 145 0 145 -290 0 -290 0 0 225 0 225 360 0 360 0 0 150 0 150 -530 0 -530 0 0 -895z"/>
 </g>
<g id="layer102" fill="#fab500" stroke="none">
 <path d="M1770 3985 l0 -2215 1330 0 1330 0 0 2215 0 2215 -445 0 -445 0 0 -1770 0 -1770 -440 0 -440 0 0 1770 0 1770 -445 0 -445 0 0 -2215z"/>
 </g>

</svg>